<svg xmlns="http://www.w3.org/2000/svg" width="30" height="40" fill="none" viewBox="0 0 30 40"><path fill="#000" d="M25.505 40q-2.09 0-3.45-.723a5.56 5.56 0 0 1-2.09-2.013q-.784-1.29-1.359-2.993l-2.247-6.865a24 24 0 0 0-.732-2.064l-.732-2.168a31 31 0 0 1-.627-2.22 26 26 0 0 1-.313-2.219h-.157q-.158 2.272-.627 4.181a69 69 0 0 1-1.15 4.336L8.519 39.484H0L10.296 11.51l-.575-1.652q-.836-2.425-2.404-3.045-1.515-.62-3.554-.62-.888 0-1.62.104-.732.103-1.254.206V.413q.47-.104 1.097-.207Q2.665.103 3.45.052T5.122 0q2.979 0 5.122.671a8.03 8.03 0 0 1 3.658 2.374q1.57 1.704 2.77 4.852l7.788 20.542q.836 2.115 1.359 3.251.575 1.084 1.097 1.497.576.361 1.307.361.575 0 .94-.051.367-.104.837-.207v5.936q-.418.206-1.254.361-.784.207-1.673.31a14 14 0 0 1-1.568.103"/></svg>